<?xml version="1.0" standalone="yes"?>
<svg xmlns="http://www.w3.org/2000/svg" width="1024" height="1024">
<path style="fill:transparent; stroke:none;" d="M0 0L0 1024L1024 1024L1024 0L0 0z"/>
<path style="fill:#ffffff; stroke:none;" d="M389 132C391.847 151.005 403.248 171.079 410.189 189C425.029 227.313 439.967 265.598 454.576 304C501.075 426.237 548.707 548.068 596 670L494 670L467 670L456.702 671.028L451.808 682L441 713L402 826L582 826L633 826C639.136 826 649.115 824.093 654.775 826.603C659.574 828.732 661.221 838.524 663 843C669.335 858.937 675.478 874.97 681.576 891C683.392 895.775 685.661 908.106 691.133 909.682C698.663 911.85 709.174 910 717 910L772 910L952 910L925 841L874.4 714L722.4 333L663.8 186L648.8 148L641.582 133.028L623 132L574 132L389 132M360 167L336.05 232L287.424 362L144.576 744L104.576 851L83 910L267 910L315 910C319.795 910 329.422 911.829 333.49 908.972C336.626 906.77 337.555 900.445 338.656 897C342.068 886.32 345.453 875.641 349 865C362.867 823.399 376.134 781.598 390 740C410.742 677.773 431.382 615.478 451.344 553C456.903 535.601 462.891 518.328 468.667 501C471.139 493.584 476.043 483.896 475.722 476C475.465 469.67 471.633 462.856 469.424 457C464.781 444.692 460.243 432.339 455.681 420C440.018 377.636 424.364 335.262 408.424 293C397.142 263.091 385.509 233.188 375 203C371.781 193.752 367.821 172.868 360 167z"/>
</svg>
